<?xml version="1.0" encoding="UTF-8" standalone="no"?>
<svg xmlns:dc="http://purl.org/dc/elements/1.1/" xmlns:cc="http://creativecommons.org/ns#"
   xmlns:rdf="http://www.w3.org/1999/02/22-rdf-syntax-ns#" xmlns:svg="http://www.w3.org/2000/svg"
   xmlns="http://www.w3.org/2000/svg" xmlns:xlink="http://www.w3.org/1999/xlink"
   xmlns:sodipodi="http://sodipodi.sourceforge.net/DTD/sodipodi-0.dtd"
   xmlns:inkscape="http://www.inkscape.org/namespaces/inkscape" width="29.66641mm" height="29.66641mm"
   viewBox="0 0 29.666411 29.666411" version="1.1" id="svg1294" sodipodi:docname="MangaBaseLogo.svg"
   inkscape:version="1.0.1 (3bc2e813f5, 2020-09-07)">
   <defs id="defs1288">
      <linearGradient inkscape:collect="always" xlink:href="#linearGradient1041" id="linearGradient1059"
         gradientUnits="userSpaceOnUse" x1="71.996208" y1="434.85547" x2="169.29297" y2="434.85547"
         gradientTransform="translate(21.729182,-0.1626307)" />
      <linearGradient inkscape:collect="always" id="linearGradient1041">
         <stop style="stop-color:#8fb339;stop-opacity:1;" offset="0" id="stop1037" />
         <stop style="stop-color:#b7ce63;stop-opacity:1" offset="1" id="stop1039" />
      </linearGradient>
      <filter inkscape:collect="always" style="color-interpolation-filters:sRGB" id="filter836" x="-9.5969899e-07"
         width="1.0000019" y="-1.6008368e-06" height="1.0000032">
         <feGaussianBlur inkscape:collect="always" stdDeviation="4.4835938e-05" id="feGaussianBlur838" />
      </filter>
   </defs>
   <sodipodi:namedview id="base" pagecolor="#ffffff" bordercolor="#666666" borderopacity="1.0"
      inkscape:pageopacity="0.0" inkscape:pageshadow="2" inkscape:zoom="2.8" inkscape:cx="-19.629253"
      inkscape:cy="45.545814" inkscape:document-units="mm" inkscape:current-layer="g1057" showgrid="false"
      inkscape:window-width="1920" inkscape:window-height="1001" inkscape:window-x="-9" inkscape:window-y="-9"
      inkscape:window-maximized="1" fit-margin-top="0" fit-margin-left="0" fit-margin-right="0" fit-margin-bottom="0"
      inkscape:document-rotation="0" />

   <g inkscape:label="Capa 1" inkscape:groupmode="layer" id="layer1" transform="translate(-4.7270651,-35.713918)">
      <g id="g1057"
         style="font-style:normal;font-weight:normal;font-size:40px;line-height:1.25;font-family:sans-serif;letter-spacing:0px;word-spacing:0px;fill:#ff0000;fill-opacity:1;stroke:none;stroke-width:1.88976;stroke-linecap:round;stroke-linejoin:round;stroke-miterlimit:4;stroke-dasharray:none;stroke-opacity:1;filter:url(#filter836)"
         transform="matrix(0.26458333,0,0,0.26458333,-20.314992,-65.122682)" aria-label="M">
         <path id="path1055"
            d="m 94.647151,403.56785 v 67.21875 h 13.640629 v -37.17188 c 0,-5 -0.20312,-10.8125 -0.60938,-17.4375 h 0.42188 c 0.96874,5.03126 1.67187,8.15626 2.10937,9.375 l 16.03125,45.23438 h 12.37501 l 15.75,-45.70313 c 0.57366,-1.6636 1.21658,-4.34915 1.92187,-7.96093 v 13.44531 40.21875 h 14.95313 10.875 c 7.625,0 13.64063,-1.79687 18.04687,-5.39063 4.40626,-3.625 6.60938,-8.51562 6.60938,-14.67187 0,-4.21875 -1.4375,-7.79688 -4.3125,-10.73438 -2.84375,-2.9375 -6.65625,-4.70312 -11.4375,-5.29687 v -0.1875 c 3.8125,-1.0625 6.9375,-2.95312 9.375,-5.67188 2.46875,-2.71874 3.70312,-5.89062 3.70312,-9.51562 0,-5 -2.01562,-8.875 -6.04687,-11.625 -4.03125,-2.75 -9.79688,-4.125 -17.29688,-4.125 h -9.51562 -14.95313 -6.65625 l -13.73437,39.75 c -0.9375,2.75 -1.82813,5.98438 -2.67188,9.70312 h -0.28125 c -0.5,-3.21874 -1.29687,-6.42187 -2.39062,-9.60937 l -13.73438,-39.84375 z m 76.781259,11.15625 h 5.67187 c 7.375,0 11.0625,2.46875 11.0625,7.40625 0,2.65625 -0.90625,4.75 -2.71875,6.28125 -1.78124,1.5 -4.23437,2.25 -7.35937,2.25 h -6.65625 z m 0,27.1875 h 8.29687 c 3.5,0 6.21875,0.76563 8.15625,2.29687 1.96876,1.53126 2.95313,3.64063 2.95313,6.32813 0,2.8125 -1,5.03125 -3,6.65625 -1.96875,1.625 -4.70313,2.4375 -8.20313,2.4375 h -8.20312 z"
            style="font-style:normal;font-variant:normal;font-weight:bold;font-stretch:normal;font-size:96px;font-family:'Nirmala UI';-inkscape-font-specification:'Nirmala UI Bold';fill:url(#linearGradient1059);fill-opacity:1;stroke:none;stroke-width:1.88976;stroke-linecap:round;stroke-linejoin:round;stroke-miterlimit:4;stroke-dasharray:none;stroke-opacity:1"
            inkscape:connector-curvature="0" />
      </g>
   </g>
</svg>